<!-- https://www.mdjahidulislamsujan.com -->

<svg viewBox="0 0 37 37" width="256" height="256" fill="#ffffff" shape-rendering="crispEdges" xmlns="http://www.w3.org/2000/svg" version="1.1">
    <path fill="#000000" d="M0,0V37H37V0H0Z" />
    <path transform="matrix(1,0,0,1,4,4)" d="M27,28h2v1h-2v-1zM24,28h1v1h-1v-1zM19,28h3v1h-3v-1zM14,28h4v1h-4v-1zM11,28h1v1h-1v-1zM0,28h7v1h-7v-1zM27,27h1v1h-1v-1zM23,27h1v1h-1v-1zM17,27h4v1h-4v-1zM11,27h5v1h-5v-1zM8,27h1v1h-1v-1zM6,27h1v1h-1v-1zM0,27h1v1h-1v-1zM28,26h1v1h-1v-1zM23,26h2v1h-2v-1zM19,26h1v1h-1v-1zM11,26h3v1h-3v-1zM8,26h1v1h-1v-1zM6,26h1v1h-1v-1zM2,26h3v1h-3v-1zM0,26h1v1h-1v-1zM24,25h5v1h-5v-1zM20,25h2v1h-2v-1zM16,25h2v1h-2v-1zM10,25h3v1h-3v-1zM6,25h1v1h-1v-1zM2,25h3v1h-3v-1zM0,25h1v1h-1v-1zM27,24h1v1h-1v-1zM20,24h6v1h-6v-1zM14,24h4v1h-4v-1zM11,24h1v1h-1v-1zM8,24h2v1h-2v-1zM6,24h1v1h-1v-1zM2,24h3v1h-3v-1zM0,24h1v1h-1v-1zM28,23h1v1h-1v-1zM24,23h1v1h-1v-1zM20,23h1v1h-1v-1zM12,23h6v1h-6v-1zM6,23h1v1h-1v-1zM0,23h1v1h-1v-1zM26,22h3v1h-3v-1zM24,22h1v1h-1v-1zM22,22h1v1h-1v-1zM19,22h2v1h-2v-1zM16,22h2v1h-2v-1zM13,22h1v1h-1v-1zM8,22h1v1h-1v-1zM0,22h7v1h-7v-1zM28,21h1v1h-1v-1zM24,21h1v1h-1v-1zM19,21h2v1h-2v-1zM16,21h1v1h-1v-1zM13,21h2v1h-2v-1zM10,21h1v1h-1v-1zM8,21h1v1h-1v-1zM28,20h1v1h-1v-1zM19,20h6v1h-6v-1zM15,20h3v1h-3v-1zM11,20h1v1h-1v-1zM5,20h4v1h-4v-1zM3,20h1v1h-1v-1zM0,20h1v1h-1v-1zM27,19h1v1h-1v-1zM22,19h3v1h-3v-1zM19,19h1v1h-1v-1zM16,19h2v1h-2v-1zM13,19h2v1h-2v-1zM8,19h4v1h-4v-1zM1,19h5v1h-5v-1zM27,18h2v1h-2v-1zM23,18h2v1h-2v-1zM21,18h1v1h-1v-1zM17,18h1v1h-1v-1zM14,18h1v1h-1v-1zM6,18h2v1h-2v-1zM3,18h2v1h-2v-1zM0,18h1v1h-1v-1zM27,17h2v1h-2v-1zM25,17h1v1h-1v-1zM20,17h3v1h-3v-1zM17,17h1v1h-1v-1zM15,17h1v1h-1v-1zM12,17h1v1h-1v-1zM8,17h2v1h-2v-1zM3,17h1v1h-1v-1zM28,16h1v1h-1v-1zM25,16h1v1h-1v-1zM21,16h3v1h-3v-1zM16,16h4v1h-4v-1zM13,16h2v1h-2v-1zM3,16h6v1h-6v-1zM0,16h1v1h-1v-1zM27,15h1v1h-1v-1zM19,15h5v1h-5v-1zM11,15h7v1h-7v-1zM9,15h1v1h-1v-1zM5,15h1v1h-1v-1zM1,15h2v1h-2v-1zM26,14h3v1h-3v-1zM23,14h1v1h-1v-1zM21,14h1v1h-1v-1zM17,14h2v1h-2v-1zM15,14h1v1h-1v-1zM13,14h1v1h-1v-1zM11,14h1v1h-1v-1zM9,14h1v1h-1v-1zM6,14h1v1h-1v-1zM3,14h1v1h-1v-1zM0,14h2v1h-2v-1zM27,13h2v1h-2v-1zM20,13h4v1h-4v-1zM17,13h2v1h-2v-1zM14,13h2v1h-2v-1zM9,13h3v1h-3v-1zM7,13h1v1h-1v-1zM2,13h1v1h-1v-1zM25,12h1v1h-1v-1zM22,12h2v1h-2v-1zM15,12h3v1h-3v-1zM11,12h1v1h-1v-1zM8,12h2v1h-2v-1zM6,12h1v1h-1v-1zM3,12h1v1h-1v-1zM27,11h1v1h-1v-1zM17,11h7v1h-7v-1zM15,11h1v1h-1v-1zM9,11h2v1h-2v-1zM7,11h1v1h-1v-1zM4,11h2v1h-2v-1zM2,11h1v1h-1v-1zM0,11h1v1h-1v-1zM25,10h4v1h-4v-1zM23,10h1v1h-1v-1zM20,10h1v1h-1v-1zM16,10h1v1h-1v-1zM8,10h5v1h-5v-1zM4,10h3v1h-3v-1zM1,10h1v1h-1v-1zM28,9h1v1h-1v-1zM20,9h4v1h-4v-1zM16,9h2v1h-2v-1zM13,9h1v1h-1v-1zM10,9h2v1h-2v-1zM7,9h2v1h-2v-1zM3,9h3v1h-3v-1zM0,9h1v1h-1v-1zM24,8h5v1h-5v-1zM22,8h1v1h-1v-1zM20,8h1v1h-1v-1zM17,8h1v1h-1v-1zM9,8h6v1h-6v-1zM6,8h2v1h-2v-1zM4,8h1v1h-1v-1zM1,8h2v1h-2v-1zM17,7h2v1h-2v-1zM14,7h1v1h-1v-1zM12,7h1v1h-1v-1zM8,7h3v1h-3v-1zM22,6h7v1h-7v-1zM20,6h1v1h-1v-1zM18,6h1v1h-1v-1zM16,6h1v1h-1v-1zM14,6h1v1h-1v-1zM12,6h1v1h-1v-1zM10,6h1v1h-1v-1zM8,6h1v1h-1v-1zM0,6h7v1h-7v-1zM28,5h1v1h-1v-1zM22,5h1v1h-1v-1zM17,5h3v1h-3v-1zM12,5h3v1h-3v-1zM9,5h2v1h-2v-1zM6,5h1v1h-1v-1zM0,5h1v1h-1v-1zM28,4h1v1h-1v-1zM24,4h3v1h-3v-1zM22,4h1v1h-1v-1zM18,4h2v1h-2v-1zM10,4h5v1h-5v-1zM8,4h1v1h-1v-1zM6,4h1v1h-1v-1zM2,4h3v1h-3v-1zM0,4h1v1h-1v-1zM28,3h1v1h-1v-1zM24,3h3v1h-3v-1zM22,3h1v1h-1v-1zM18,3h1v1h-1v-1zM15,3h1v1h-1v-1zM10,3h1v1h-1v-1zM8,3h1v1h-1v-1zM6,3h1v1h-1v-1zM2,3h3v1h-3v-1zM0,3h1v1h-1v-1zM28,2h1v1h-1v-1zM24,2h3v1h-3v-1zM22,2h1v1h-1v-1zM20,2h1v1h-1v-1zM18,2h1v1h-1v-1zM14,2h2v1h-2v-1zM8,2h1v1h-1v-1zM6,2h1v1h-1v-1zM2,2h3v1h-3v-1zM0,2h1v1h-1v-1zM28,1h1v1h-1v-1zM22,1h1v1h-1v-1zM17,1h3v1h-3v-1zM11,1h1v1h-1v-1zM8,1h1v1h-1v-1zM6,1h1v1h-1v-1zM0,1h1v1h-1v-1zM22,0h7v1h-7v-1zM19,0h1v1h-1v-1zM14,0h2v1h-2v-1zM10,0h1v1h-1v-1zM8,0h1v1h-1v-1zM0,0h7v1h-7v-1z" />
</svg>