<svg width="30" height="30" viewBox="0 0 32 32" fill="none" xmlns="http://www.w3.org/2000/svg">
<path d="M31 0H0C0 0 0 0 0 0V32C0 32 0 32 5 32H31V0Z" fill="#135E96"/>
<path d="M16 4C9.38548 4 4 9.38064 4 16C4 22.6145 9.38548 28 16 28C22.6145 28 28 22.6145 28 16C28 9.38064 22.6145 4 16 4ZM5.20968 16C5.20968 14.4371 5.54355 12.9516 6.14355 11.6113L11.2919 25.7113C7.69194 23.9597 5.20968 20.2677 5.20968 16ZM16 26.7903C14.9403 26.7903 13.9194 26.6355 12.9516 26.35L16.1887 16.9435L19.5032 26.0306C19.5274 26.0839 19.5516 26.1323 19.5806 26.1806C18.4629 26.5726 17.2581 26.7903 16 26.7903ZM17.4855 10.9435C18.1339 10.9097 18.7194 10.8419 18.7194 10.8419C19.3 10.7742 19.2323 9.91774 18.6516 9.95161C18.6516 9.95161 16.9048 10.0871 15.7774 10.0871C14.7177 10.0871 12.9371 9.95161 12.9371 9.95161C12.3565 9.91774 12.2887 10.8081 12.8694 10.8419C12.8694 10.8419 13.421 10.9097 14.0016 10.9435L15.6806 15.55L13.3194 22.629L9.39032 10.9435C10.0387 10.9097 10.6242 10.8419 10.6242 10.8419C11.2048 10.7742 11.1371 9.91774 10.5565 9.95161C10.5565 9.95161 8.80968 10.0871 7.68226 10.0871C7.47903 10.0871 7.24194 10.0823 6.98548 10.0726C8.91613 7.14516 12.2306 5.20968 16 5.20968C18.8065 5.20968 21.3661 6.28387 23.2871 8.04032C23.2387 8.03548 23.1952 8.03065 23.1468 8.03065C22.0871 8.03065 21.3371 8.95484 21.3371 9.94677C21.3371 10.8371 21.85 11.5871 22.3968 12.4774C22.8081 13.1935 23.2871 14.1177 23.2871 15.4532C23.2871 16.3774 22.9339 17.4468 22.4645 18.9419L21.3903 22.5371L17.4855 10.9435ZM21.4242 25.3242L24.7194 15.7968C25.3339 14.2581 25.5419 13.029 25.5419 11.9306C25.5419 11.5339 25.5177 11.1661 25.4694 10.8226C26.3113 12.3613 26.7903 14.1226 26.7903 16C26.7903 19.9823 24.6323 23.4565 21.4242 25.3242Z" fill="white"/>
<defs>
<linearGradient id="paint0_linear" x1="0" y1="0" x2="0" y2="32" gradientUnits="userSpaceOnUse">
<stop stop-color="#BBBBBB" stop-opacity="0.1"/>
<stop offset="1" stop-opacity="0.1"/>
</linearGradient>
</defs>
</svg>
