<svg xmlns="http://www.w3.org/2000/svg" xmlns:xlink="http://www.w3.org/1999/xlink" width="50" zoomAndPan="magnify" viewBox="0 0 750 374.999991" height="25" preserveAspectRatio="xMidYMid meet" version="1.0">
    <defs>
        <clipPath id="50fc780ea8">
            <path d="M 156 1.40625 L 337 1.40625 L 337 55 L 156 55 Z M 156 1.40625 " clip-rule="nonzero" />
        </clipPath>
    </defs>
    <rect x="-75" width="900" fill="#ffffff" y="-37.499999" height="449.999989" fill-opacity="1" />
    <rect x="-75" width="900" fill="#ffffff" y="-37.499999" height="449.999989" fill-opacity="1" />
    <path fill="#000000" d="M 634.816406 157.898438 C 637.214844 158.550781 637.945312 148.59375 633.433594 149.976562 C 628.925781 151.355469 631.980469 157.097656 634.816406 157.898438 Z M 634.816406 157.898438 " fill-opacity="1" fill-rule="nonzero" />
    <path fill="#000000" d="M 428.15625 9.777344 C 428.15625 9.777344 426.628906 11.882812 430.265625 11.882812 C 433.972656 11.882812 441.609375 9.414062 447.714844 9.414062 C 453.824219 9.414062 452.007812 7.304688 450.769531 7.304688 C 449.535156 7.304688 446.191406 3.960938 441.316406 4.253906 C 436.445312 4.542969 436.738281 6.722656 433.683594 6.722656 C 430.628906 6.722656 431.210938 5.777344 424.8125 6.140625 C 418.410156 6.433594 424.8125 9.195312 428.15625 9.777344 Z M 428.15625 9.777344 " fill-opacity="1" fill-rule="nonzero" />
    <path fill="#000000" d="M 640.996094 187.117188 C 643.035156 188.496094 643.398438 190.894531 643.035156 194.675781 C 642.671875 198.453125 639.253906 198.089844 645.070312 200.488281 C 650.886719 202.886719 657.796875 207.03125 656.050781 199.472656 C 654.304688 191.914062 655.6875 190.894531 649.503906 185.007812 C 643.324219 179.195312 642.960938 182.972656 642.304688 178.101562 C 641.652344 173.304688 639.90625 164.367188 637.507812 167.78125 C 635.398438 170.835938 633.726562 171.925781 636.125 177.085938 C 638.597656 182.320312 638.890625 185.734375 640.996094 187.117188 Z M 640.996094 187.117188 " fill-opacity="1" fill-rule="nonzero" />
    <path fill="#000000" d="M 700.480469 231.085938 C 695.972656 226.289062 688.410156 222.800781 685.355469 223.164062 C 682.226562 223.527344 679.539062 228.324219 677.792969 226.582031 C 676.046875 224.835938 670.882812 216.625 668.195312 219.023438 C 665.429688 221.421875 668.558594 224.183594 665.066406 224.183594 C 661.648438 224.183594 660.632812 228.324219 659.902344 222.800781 C 659.25 217.277344 656.484375 214.515625 655.757812 218.660156 C 655.105469 222.800781 654.742188 225.5625 652.996094 222.4375 C 651.25 219.3125 650.234375 221.421875 650.234375 218.296875 C 650.234375 215.171875 643.324219 211.753906 640.632812 215.171875 C 638.890625 217.351562 638.234375 217.570312 637.507812 222.367188 C 636.851562 227.164062 635.109375 234.722656 638.890625 232.6875 C 642.671875 230.652344 643.398438 232.324219 645.070312 229.925781 C 646.816406 227.527344 648.851562 226.144531 651.976562 227.527344 C 655.105469 228.90625 653.722656 228.90625 659.175781 228.179688 C 664.703125 227.527344 667.394531 227.527344 671.246094 229.925781 C 675.027344 232.324219 682.589844 230.941406 682.589844 233.339844 C 682.589844 235.738281 674.664062 237.484375 682.589844 239.882812 C 690.519531 242.28125 692.191406 247.804688 694.664062 245.042969 C 697.0625 242.28125 700.480469 238.5 702.953125 241.261719 C 705.351562 244.023438 714.660156 251.582031 712.914062 247.441406 C 711.167969 243.296875 711.53125 239.519531 717.058594 235.085938 C 722.585938 230.652344 721.203125 228.542969 718.804688 228.542969 C 716.40625 228.542969 716.40625 231.667969 710.878906 232.324219 C 705.277344 233.195312 704.988281 235.882812 700.480469 231.085938 Z M 700.480469 231.085938 " fill-opacity="1" fill-rule="nonzero" />
    <path fill="#000000" d="M 378.5625 16.316406 C 378.925781 16.390625 379.21875 16.460938 379.507812 16.535156 C 382.5625 17.769531 384.742188 15.953125 385.035156 13.484375 C 388.378906 8.613281 387.144531 17.480469 390.851562 15.953125 C 394.488281 14.425781 399.722656 10.722656 404.015625 8.613281 C 408.304688 6.503906 398.777344 7.378906 391.144531 6.140625 C 383.507812 4.90625 372.746094 7.085938 369.691406 9.195312 C 366.855469 11.15625 374.128906 15.007812 378.5625 16.316406 Z M 378.5625 16.316406 " fill-opacity="1" fill-rule="nonzero" />
    <path fill="#000000" d="M 627.910156 199.109375 C 625.800781 201.796875 621.726562 207.683594 618.964844 209.792969 C 616.203125 211.828125 611.402344 209.136719 611.765625 213.933594 C 612.128906 218.730469 612.421875 220.839844 612.785156 224.253906 C 613.148438 227.671875 613.800781 229.777344 618.964844 229.777344 C 624.128906 229.777344 626.527344 231.523438 628.273438 230.796875 C 630.015625 230.140625 629.652344 227.015625 631.691406 222.875 C 633.726562 218.730469 637.214844 219.75 635.835938 216.695312 C 634.453125 213.570312 634.453125 214.296875 634.453125 211.171875 C 634.453125 208.046875 636.199219 210.15625 635.179688 204.996094 C 634.089844 199.835938 630.308594 196.054688 627.910156 199.109375 Z M 627.910156 199.109375 " fill-opacity="1" fill-rule="nonzero" />
    <path fill="#000000" d="M 639.6875 246.859375 C 644.5625 247.441406 648.269531 246.859375 651.613281 245.042969 C 654.960938 243.222656 653.433594 241.042969 653.140625 240.171875 C 652.851562 239.226562 650.378906 241.117188 647.03125 241.699219 C 643.6875 242.28125 642.742188 242.28125 638.453125 242.644531 C 634.164062 242.933594 636.925781 241.117188 632.34375 240.824219 C 627.761719 240.535156 623.183594 239.589844 617.945312 237.773438 C 612.710938 235.957031 610.019531 234.429688 606.3125 233.195312 C 602.601562 231.960938 606.019531 229.851562 605.730469 224.617188 C 605.4375 219.386719 602.019531 221.566406 599.332031 219.75 C 596.566406 217.933594 597.511719 213.933594 598.75 215.171875 C 599.984375 216.40625 600.277344 217.933594 600.277344 211.464844 C 600.277344 205.066406 594.457031 200.78125 590.824219 195.253906 C 587.113281 189.730469 587.769531 186.679688 588.058594 183.917969 C 588.351562 181.15625 594.824219 186.390625 598.167969 190.3125 C 601.511719 194.3125 601.511719 194.3125 603.402344 193.367188 C 605.222656 192.421875 610.746094 189.367188 611.984375 184.5 C 613.21875 179.628906 602.167969 169.816406 600.640625 165.238281 C 599.113281 160.660156 602.75 163.421875 604.640625 160.371094 C 606.457031 157.316406 608.640625 161.605469 607.402344 163.710938 C 606.167969 165.820312 607.695312 167.054688 608.929688 169.234375 C 610.164062 171.34375 610.164062 169.234375 611.402344 166.472656 C 612.636719 163.710938 611.691406 162.769531 613.875 160.949219 C 616.054688 159.132812 624.273438 156.664062 626.453125 154.554688 C 628.636719 152.445312 630.164062 149.976562 632.851562 142.34375 C 635.617188 134.714844 632.5625 135.003906 631.328125 132.242188 C 630.089844 129.480469 626.453125 124.902344 624.273438 122.140625 C 622.164062 119.378906 623.980469 120.03125 625.507812 119.085938 C 627.035156 118.140625 625.800781 116.035156 622.164062 114.800781 C 618.457031 113.5625 619.109375 116.035156 615.765625 115.378906 C 612.421875 114.800781 614.238281 112.328125 617.875 108.039062 C 621.582031 103.75 619.691406 108.984375 622.164062 110.800781 C 624.636719 112.617188 625.21875 109.273438 627.035156 110.21875 C 628.855469 111.164062 632.5625 112.980469 635.324219 116.617188 C 638.089844 120.25 638.089844 124.539062 640.851562 124.246094 C 643.617188 123.957031 643.617188 122.722656 644.851562 119.960938 C 646.089844 117.199219 641.507812 114.726562 639.324219 112.617188 C 637.144531 110.511719 635.035156 110.511719 636.851562 108.621094 C 638.671875 106.804688 637.144531 104.042969 638.089844 101.863281 C 639.035156 99.753906 642.378906 100.917969 645.722656 99.390625 C 649.070312 97.863281 649.359375 92.632812 649.359375 87.179688 C 649.359375 81.65625 646.597656 79.257812 645.070312 77.367188 C 643.542969 75.550781 646.886719 76.421875 649.652344 78.605469 C 652.414062 80.710938 656.703125 92.339844 657.578125 96.992188 C 658.523438 101.570312 657.867188 101.570312 661.578125 105.570312 C 665.285156 109.566406 664.050781 108.910156 662.8125 113.492188 C 661.578125 118.070312 658.523438 119.304688 653.941406 120.539062 C 649.359375 121.777344 650.886719 122.648438 648.125 127.300781 C 645.359375 131.878906 649.652344 132.167969 652.125 133.40625 C 654.597656 134.640625 655.757812 130.0625 658.886719 127.882812 C 661.941406 125.773438 665.285156 124.175781 670.519531 124.175781 C 675.757812 124.175781 668.992188 117.125 668.703125 113.492188 C 668.410156 109.855469 668.121094 107.386719 666.886719 104.625 C 665.648438 101.863281 668.121094 101.863281 671.757812 100.042969 C 675.394531 98.226562 675.101562 94.519531 672.992188 94.519531 C 670.882812 94.519531 668.992188 96.046875 664.121094 95.757812 C 659.25 95.464844 660.484375 91.46875 659.25 89.941406 C 658.011719 88.414062 656.488281 85.074219 656.195312 82.3125 C 655.90625 79.550781 651.613281 75.914062 648.558594 73.152344 C 645.507812 70.390625 643.6875 68.574219 643.6875 69.808594 C 643.6875 71.046875 641.871094 69.519531 637.578125 69.226562 C 633.289062 68.9375 632.34375 69.808594 628.707031 69.519531 C 625 69.226562 629 63.125 630.527344 58.835938 C 632.054688 54.546875 636.34375 57.019531 639.6875 57.019531 C 643.035156 57.019531 644.5625 57.308594 649.503906 58.542969 C 654.378906 59.78125 652.269531 55.492188 653.214844 52.148438 C 654.160156 48.804688 656.269531 50.621094 659.03125 51.859375 C 661.792969 53.09375 662.667969 53.382812 662.667969 50.621094 C 662.667969 47.859375 665.140625 47.277344 667.25 49.675781 C 669.355469 52.148438 663.539062 57.308594 663.539062 57.308594 C 663.539062 57.308594 661.722656 62.832031 665.066406 64.648438 C 668.410156 66.464844 675.175781 74.460938 679.175781 77.222656 C 683.171875 79.984375 680.410156 72.644531 680.410156 67.410156 C 680.410156 62.179688 676.773438 62.832031 674.011719 57.964844 C 671.246094 53.09375 673.066406 55.203125 678.300781 55.203125 C 683.535156 55.203125 683.828125 53.382812 685.0625 51.859375 C 686.300781 50.332031 687.171875 50.039062 691.828125 50.039062 C 696.40625 50.039062 693.644531 48.222656 691.535156 45.753906 C 689.425781 43.28125 685.136719 43.9375 686.664062 42.410156 C 688.191406 40.882812 696.480469 43.355469 700.40625 44.878906 C 704.40625 46.40625 703.460938 45.171875 702.878906 41.539062 C 702.296875 37.902344 698.878906 40.59375 689.136719 36.957031 C 679.320312 33.324219 668.628906 31.144531 665.285156 31.144531 C 661.941406 31.144531 664.339844 29.035156 666.8125 29.035156 C 669.285156 29.035156 668.628906 26.929688 666.230469 25.691406 C 663.757812 24.457031 661.648438 25.402344 660.703125 28.164062 C 659.757812 30.925781 663.46875 31.214844 656.414062 31.214844 C 649.359375 31.214844 644.195312 31.214844 635.90625 29.691406 C 627.617188 28.164062 624.5625 28.164062 617.511719 27.875 C 610.457031 27.582031 611.109375 24.53125 603.765625 24.53125 C 596.421875 24.53125 598.894531 21.769531 595.839844 18.425781 C 592.785156 15.082031 591.257812 15.953125 582.097656 15.953125 C 572.933594 15.953125 577.808594 19.589844 579.625 20.242188 C 581.441406 20.824219 586.386719 22.351562 589.730469 25.476562 C 593.078125 28.527344 583.625 27.292969 579.625 27.582031 C 575.625 27.875 575.988281 25.476562 571.335938 22.714844 C 566.753906 19.953125 555.410156 21.476562 549.011719 21.1875 C 542.613281 20.894531 542.25 21.1875 539.847656 16.609375 C 537.375 12.027344 532.214844 14.5 525.449219 14.5 C 518.6875 14.5 515.050781 11.15625 511.707031 8.976562 C 508.363281 6.867188 503.125 6.503906 495.78125 5.34375 C 488.4375 4.105469 492.4375 9.921875 495.199219 10.210938 C 495.199219 10.210938 498.253906 11.449219 501.308594 11.738281 C 504.363281 12.027344 510.835938 12.320312 514.179688 16.316406 C 517.523438 20.316406 503.78125 18.789062 497.671875 22.132812 C 491.566406 25.476562 486.621094 23.949219 482.402344 25.765625 C 478.113281 27.582031 484.511719 30.636719 486.109375 34.632812 C 487.636719 38.628906 486.109375 38.628906 483.347656 39.503906 C 480.585938 40.445312 484.292969 35.214844 483.058594 33.6875 C 481.820312 32.160156 477.238281 24.238281 473.605469 21.769531 C 469.894531 19.296875 470.550781 23.875 471.132812 27.292969 C 471.714844 30.636719 472.660156 30.636719 473.605469 33.105469 C 474.550781 35.578125 469.605469 33.105469 467.203125 31.289062 C 464.730469 29.472656 456.804688 33.761719 453.097656 31.871094 C 449.460938 30.054688 454.332031 30.636719 454.332031 28.816406 C 454.332031 27 450.042969 28.527344 448.808594 25.765625 C 447.570312 23.003906 456.441406 19.660156 461.96875 18.714844 C 467.496094 17.769531 466.839844 17.769531 466.839844 15.082031 C 466.839844 12.320312 457.023438 13.265625 448.808594 17.191406 C 440.519531 21.1875 442.699219 23.949219 441.464844 26.636719 C 440.226562 29.398438 444.226562 29.691406 446.042969 31.214844 C 447.863281 32.742188 443.933594 33.324219 440.226562 34.558594 C 436.589844 35.796875 435.644531 34.558594 431.355469 36.085938 C 427.066406 37.613281 429.539062 39.429688 425.828125 40.957031 C 422.191406 42.480469 422.484375 42.480469 419.429688 43.71875 C 416.375 44.953125 420.011719 39.140625 424.300781 38.484375 C 428.59375 37.902344 427.355469 35.433594 426.121094 34.488281 C 424.882812 33.542969 416.957031 31.144531 408.375 28.671875 C 399.796875 26.203125 386.054688 29.617188 381.472656 31.726562 C 376.890625 33.832031 377.179688 35.433594 376.601562 38.484375 C 376.019531 41.539062 365.546875 46.117188 360.382812 48.878906 C 355.148438 51.640625 359.800781 55.273438 361.328125 57.746094 C 362.855469 60.214844 366.203125 58.980469 370.492188 57.746094 C 374.78125 56.507812 374.128906 61.742188 374.78125 63.558594 C 375.363281 65.375 377.835938 65.667969 381.835938 63.851562 C 385.835938 62.03125 384.890625 57.746094 384.890625 55.273438 C 384.890625 52.804688 383.945312 51.566406 386.707031 48.222656 C 389.46875 44.878906 391.941406 42.699219 394.34375 41.175781 C 396.816406 39.648438 396.453125 42.410156 392.816406 45.460938 C 389.179688 48.515625 391.578125 49.460938 393.398438 53.09375 C 395.214844 56.800781 398.921875 53.09375 403.503906 52.511719 C 408.085938 51.929688 399.503906 56.507812 396.160156 56.507812 C 392.816406 56.507812 396.160156 60.144531 394.050781 60.144531 C 391.941406 60.144531 391.578125 61.667969 391.289062 65.375 C 390.996094 69.082031 389.761719 68.136719 387.289062 69.082031 C 384.816406 70.027344 381.179688 70.320312 377.179688 69.375 C 373.183594 68.429688 373.546875 64.796875 370.78125 62.324219 C 368.019531 59.851562 367.4375 63.558594 367.4375 65.085938 C 367.4375 66.613281 364.675781 69.957031 363.4375 69.957031 C 362.203125 69.957031 358.566406 73.660156 356.382812 76.714844 C 354.277344 79.765625 352.75 77.949219 352.09375 76.714844 C 351.511719 75.480469 353.621094 73.660156 352.386719 70.609375 C 351.148438 67.558594 346.277344 65.085938 347.804688 58.035156 C 349.332031 50.984375 345.984375 54.691406 341.042969 55.273438 C 336.167969 55.855469 334.640625 58.035156 334.277344 59.851562 C 333.988281 61.667969 331.222656 65.375 328.171875 68.71875 C 325.117188 72.0625 327.226562 74.824219 328.753906 78.53125 C 330.277344 82.238281 334.277344 77.296875 335.515625 74.242188 C 336.75 71.191406 338.277344 69.664062 340.097656 71.191406 C 341.914062 72.71875 337.332031 75.480469 336.75 79.113281 C 336.167969 82.820312 337.988281 82.457031 342.277344 81.21875 C 346.566406 79.984375 344.386719 79.113281 347.804688 80.640625 C 351.148438 82.164062 344.75 83.402344 340.75 83.691406 C 336.75 83.984375 338.277344 86.746094 341.695312 89.214844 C 345.039062 91.6875 343.511719 95.320312 341.40625 95.609375 C 339.296875 95.902344 335.296875 96.554688 329.1875 97.71875 C 323.082031 98.953125 328.605469 103.824219 327.371094 106.585938 C 326.132812 109.347656 325.84375 115.453125 328.605469 115.742188 C 331.371094 116.035156 331.371094 120.613281 329.84375 122.140625 C 328.316406 123.664062 328.023438 125.191406 324.316406 127.953125 C 320.609375 130.714844 323.371094 133.1875 322.207031 136.820312 C 320.972656 140.453125 317.917969 138.347656 314.28125 142.34375 C 310.644531 146.34375 309.046875 149.394531 306.355469 153.972656 C 303.59375 158.550781 303.300781 158.84375 306.644531 164.367188 C 309.992188 169.890625 306.644531 171.417969 303.882812 176.285156 C 301.121094 181.15625 304.828125 181.519531 305.992188 185.734375 C 307.226562 190.023438 309.699219 189.078125 310.574219 193.367188 C 311.519531 197.652344 312.683594 198.890625 316.972656 201.941406 C 321.261719 204.996094 325.550781 209.28125 327.660156 208.339844 C 329.769531 207.394531 333.1875 204.996094 340.242188 205.285156 C 347.292969 205.578125 344.824219 202.234375 352.167969 200.996094 C 359.511719 199.761719 355.511719 201.941406 356.457031 204.050781 C 357.402344 206.230469 361.328125 208.339844 366.855469 208.628906 C 372.382812 208.917969 367.800781 215.679688 367.4375 219.96875 C 367.148438 224.253906 367.4375 224.253906 370.199219 227.890625 C 372.964844 231.523438 376.601562 239.808594 377.546875 244.097656 C 378.492188 248.382812 376.601562 253.253906 374.199219 257.25 C 371.726562 261.25 372.671875 270.40625 377.835938 277.167969 C 383.070312 283.925781 379.945312 283.5625 379.945312 290.613281 C 379.945312 297.660156 383.652344 296.425781 386.34375 300.421875 C 389.105469 304.421875 387.871094 311.761719 390.34375 315.6875 C 392.816406 319.683594 397.105469 315.976562 401.976562 314.160156 C 406.851562 312.34375 409.03125 312.925781 414.847656 308.636719 C 420.667969 304.347656 425.246094 295.773438 425.246094 293.375 C 425.246094 290.902344 427.066406 290.03125 430.121094 288.792969 C 433.171875 287.558594 432.589844 279.636719 432.226562 277.457031 C 431.9375 275.347656 432.808594 273.460938 434.046875 272.222656 C 435.28125 270.988281 442.917969 263.648438 445.679688 260.59375 C 448.445312 257.542969 445.972656 253.253906 445.390625 248.382812 C 444.808594 243.515625 442.917969 241.625 442.917969 235.8125 C 442.917969 229.996094 441.097656 230.578125 451.207031 221.128906 C 461.316406 211.679688 470.769531 196.636719 471.714844 193.292969 C 472.660156 189.949219 472.292969 187.1875 471.714844 184.71875 C 471.132812 182.246094 457.96875 187.1875 454.914062 187.1875 C 451.863281 187.1875 446.335938 180.429688 445.753906 178.03125 C 445.171875 175.558594 440.519531 173.160156 436.589844 169.453125 C 432.589844 165.820312 435.644531 160.585938 432.589844 156.589844 C 429.539062 152.59375 428.011719 146.777344 427.355469 143.433594 C 426.773438 140.089844 431.9375 145.90625 435.9375 150.484375 C 439.9375 155.0625 445.097656 163.640625 446.625 166.691406 C 448.152344 169.746094 449.390625 174.324219 449.679688 178.03125 C 449.972656 181.664062 452.441406 182.320312 456.078125 182.027344 C 459.714844 181.738281 472.585938 174.976562 477.167969 172.871094 C 481.75 170.761719 487.273438 164.292969 489.382812 158.1875 C 491.492188 152.082031 484.800781 152.957031 481.75 149.902344 C 478.695312 146.851562 478.695312 149.902344 474.984375 150.847656 C 471.351562 151.792969 468.222656 146.851562 462.40625 141.398438 C 456.589844 135.875 460.296875 137.765625 461.460938 136.53125 C 462.625 135.292969 468.515625 139.292969 471.859375 143.289062 C 475.203125 147.285156 475.859375 145.761719 479.785156 145.761719 C 483.785156 145.761719 484.65625 147.578125 489.890625 149.105469 C 495.128906 150.628906 497.820312 148.523438 502.328125 148.957031 C 506.761719 149.394531 506.109375 151.574219 509.234375 156.445312 C 512.289062 161.3125 511.054688 159.789062 517.816406 160.441406 C 524.578125 161.023438 519.632812 160.441406 519.632812 164.730469 C 519.632812 169.019531 520.214844 170.542969 524.214844 175.777344 C 528.214844 181.011719 529.742188 190.75 530.976562 195.691406 C 532.214844 200.5625 534.6875 195.691406 538.613281 195.691406 C 542.613281 195.691406 538.902344 199.035156 541.957031 203.976562 C 545.011719 208.847656 547.191406 202.449219 547.191406 200.632812 C 547.191406 198.816406 545.375 194.238281 543.558594 192.710938 C 541.738281 191.183594 539.265625 191.476562 541.375 189.078125 C 543.558594 186.605469 541.667969 184.207031 541.667969 180.792969 C 541.667969 177.449219 541.957031 174.976562 543.484375 173.453125 C 545.011719 171.925781 550.539062 166.402344 553.882812 162.402344 C 557.226562 158.40625 559.992188 157.824219 564.574219 158.117188 C 569.152344 158.40625 565.519531 159.0625 568.28125 162.695312 C 571.042969 166.402344 571.625 171.5625 574.679688 175.269531 C 577.734375 178.976562 578.023438 174.6875 580.496094 173.453125 C 582.96875 172.214844 581.441406 177.085938 583.261719 180.792969 C 585.078125 184.5 583.84375 189.367188 583.84375 192.710938 C 583.84375 196.054688 587.839844 199.472656 590.242188 202.523438 C 592.714844 205.578125 591.769531 207.101562 590.242188 208.339844 C 588.714844 209.574219 585.660156 205.285156 583.1875 202.8125 C 580.714844 200.34375 577.078125 201.871094 579.550781 204.632812 C 582.023438 207.394531 583.550781 212.261719 586.316406 217.496094 C 589.078125 222.730469 594.894531 228.832031 598.894531 234.285156 C 602.894531 239.808594 615.691406 242.207031 620.636719 242.207031 C 625 241.988281 634.816406 246.277344 639.6875 246.859375 Z M 427.285156 128.171875 C 425.464844 131.804688 424.519531 134.277344 421.757812 133.40625 C 418.992188 132.460938 409.832031 132.824219 405.25 131.296875 C 400.667969 129.769531 393.90625 127.007812 392.671875 130.351562 C 391.433594 133.695312 395.722656 136.457031 388.089844 133.695312 C 380.453125 130.933594 372.164062 127.589844 371.292969 125.121094 C 370.347656 122.648438 374.34375 115.960938 368.820312 115.960938 C 363.292969 115.960938 355.65625 115.671875 353.183594 117.488281 C 350.710938 119.304688 341.257812 122.722656 338.207031 121.777344 C 335.441406 120.976562 331.152344 119.960938 336.097656 117.777344 C 340.96875 115.671875 346.785156 116.832031 347.441406 113.78125 C 348.023438 110.730469 343.148438 110.148438 348.023438 107.386719 C 352.894531 104.625 351.078125 102.152344 354.421875 100.625 C 357.765625 99.101562 362.347656 99.390625 364.820312 98.519531 C 367.292969 97.574219 363.875 96.703125 368.820312 99.464844 C 373.691406 102.226562 376.746094 107.386719 379.21875 107.75 C 381.691406 108.039062 383.21875 109.855469 381.691406 111.09375 C 380.164062 112.328125 377.691406 113.199219 376.816406 113.199219 C 375.871094 113.199219 375.289062 115.671875 376.234375 115.960938 C 377.179688 116.253906 379.289062 120.25 380.816406 119.015625 C 382.34375 117.777344 380.816406 115.960938 383.582031 115.015625 C 386.34375 114.070312 389.105469 112.910156 387.871094 111.019531 C 386.632812 109.203125 385.398438 107.023438 387.871094 108.257812 C 390.34375 109.492188 392.453125 108.839844 389.6875 106.148438 C 386.925781 103.386719 385.980469 103.386719 382.636719 100.917969 C 379.289062 98.445312 375.582031 97.210938 375.582031 95.394531 C 375.582031 93.578125 373.472656 90.160156 376.816406 91.394531 C 380.164062 92.632812 391.796875 99.027344 391.796875 101.5 C 391.796875 103.96875 394.851562 108.257812 392.089844 110.367188 C 389.324219 112.472656 394.851562 113.128906 396.085938 114.363281 C 397.324219 115.597656 396.667969 118.941406 400.085938 118.359375 C 403.433594 117.777344 405.90625 118.070312 404.085938 114.652344 C 402.269531 111.308594 399.214844 109.785156 402.269531 108.546875 C 405.324219 107.3125 405.976562 105.785156 406.851562 111.019531 C 407.796875 116.253906 406.558594 118.070312 413.902344 118.359375 C 421.246094 118.652344 426.121094 116.542969 427.066406 118.652344 C 427.863281 120.832031 429.101562 124.539062 427.285156 128.171875 Z M 439.207031 105.277344 C 434.335938 104.988281 426.046875 103.460938 422.046875 103.460938 C 418.046875 103.460938 416.519531 104.042969 416.519531 104.042969 C 413.175781 103.460938 405.175781 105.570312 409.175781 100.335938 C 413.175781 95.101562 410.703125 88.414062 415.574219 90.234375 C 420.449219 92.050781 420.8125 99.101562 423.867188 94.8125 C 426.917969 90.523438 430.265625 85.652344 431.210938 88.996094 C 432.15625 92.339844 426.917969 95.101562 433.320312 97.863281 C 439.789062 100.699219 444.082031 105.570312 439.207031 105.277344 Z M 468.585938 116.542969 C 464.003906 116.542969 458.480469 115.597656 458.480469 113.199219 L 458.480469 107.386719 C 456.007812 101.570312 452.953125 100.335938 452.953125 96.339844 C 452.953125 92.339844 455.425781 88.996094 460.296875 88.996094 C 465.167969 88.996094 467.640625 88.414062 463.933594 92.632812 C 460.296875 96.917969 456.878906 97.210938 461.824219 103.96875 C 466.769531 110.730469 473.167969 116.542969 468.585938 116.542969 Z M 468.585938 116.542969 " fill-opacity="1" fill-rule="nonzero" />
    <path fill="#000000" d="M 702.878906 275.421875 C 699.753906 267.5 699.753906 261.320312 698.082031 257.90625 C 696.335938 254.488281 697.714844 250.347656 692.554688 250.347656 C 690.445312 250.347656 690.519531 251.726562 688.773438 256.160156 C 687.027344 260.59375 689.136719 268.878906 684.628906 267.863281 C 680.191406 266.84375 678.082031 264.738281 677.066406 260.304688 C 676.046875 255.871094 678.445312 251.726562 675.027344 251.726562 C 671.609375 251.726562 661.941406 249.328125 659.539062 253.109375 C 657.140625 256.886719 660.195312 258.269531 655.105469 258.269531 C 649.941406 258.269531 647.90625 258.269531 645.140625 261.683594 C 642.378906 265.101562 638.597656 274.769531 623.835938 275.421875 C 609.074219 276.074219 616.636719 283.996094 616.636719 292.574219 C 616.636719 301.152344 608.710938 306.3125 612.203125 309.4375 C 615.621094 312.5625 611.183594 316.632812 618.382812 314.234375 C 625.582031 311.835938 632.125 311.109375 643.46875 309.4375 C 654.8125 307.691406 659.976562 307.039062 660.339844 312.5625 C 660.703125 318.085938 658.957031 314.304688 663.46875 315.324219 C 667.976562 316.339844 663.101562 323.609375 668.265625 324.261719 C 673.429688 324.917969 670.300781 328.695312 674.8125 328.695312 C 679.246094 328.695312 680.992188 333.492188 677.210938 333.492188 C 673.429688 333.492188 667.902344 341.414062 673.429688 338.652344 C 678.957031 335.890625 684.410156 335.238281 684.410156 331.09375 C 684.410156 326.953125 683.753906 326.660156 690.226562 321.5 C 696.769531 316.339844 711.894531 303.984375 710.878906 294.027344 C 709.789062 284.070312 706.007812 283.34375 702.878906 275.421875 Z M 702.878906 275.421875 " fill-opacity="1" fill-rule="nonzero" />
    <path fill="#000000" d="M 747.964844 316.703125 C 745.199219 315.324219 745.199219 317.722656 743.527344 322.882812 C 741.78125 328.042969 733.203125 330.078125 731.820312 331.167969 C 730.4375 332.183594 727.675781 335.308594 727.675781 335.308594 C 721.132812 339.453125 708.40625 343.59375 711.53125 347.011719 C 714.660156 350.425781 716.695312 348.390625 724.257812 344.613281 C 731.820312 340.832031 733.855469 336.035156 738 333.273438 C 742.148438 330.511719 744.546875 330.875 747.601562 327.460938 C 750.726562 323.898438 750.726562 318.085938 747.964844 316.703125 Z M 747.964844 316.703125 " fill-opacity="1" fill-rule="nonzero" />
    <path fill="#000000" d="M 257.417969 231.015625 C 251.890625 229.488281 251.601562 231.304688 251.019531 228.253906 C 250.4375 225.199219 246.726562 225.199219 243.382812 225.199219 C 240.039062 225.199219 238.800781 224.910156 236.039062 222.4375 C 233.273438 219.96875 227.457031 219.675781 225.640625 219.09375 C 223.820312 218.511719 224.695312 213.28125 221.058594 208.410156 C 217.351562 203.542969 209.714844 202.597656 204.84375 199.835938 C 199.972656 197.074219 201.496094 186.390625 194.445312 187.261719 C 187.390625 188.207031 186.808594 190.96875 180.335938 187.550781 C 173.9375 184.207031 169.648438 182.027344 166.230469 184.5 C 162.886719 186.96875 158.59375 191.550781 156.414062 192.785156 C 154.304688 194.019531 150.597656 191.839844 148.488281 192.203125 C 146.378906 192.492188 143.90625 190.023438 142.378906 187.914062 C 140.851562 185.808594 145.140625 175.050781 141.144531 175.050781 C 137.144531 175.050781 131.980469 173.234375 131.980469 171.707031 C 131.980469 170.179688 140.269531 161.023438 137.796875 159.496094 C 135.324219 157.972656 130.453125 158.914062 126.164062 164.730469 C 121.875 170.542969 117.875 170.253906 115.765625 168.074219 C 113.65625 165.964844 108.710938 153.390625 112.710938 146.34375 C 116.710938 139.292969 123.109375 135.949219 127.980469 136.238281 C 132.851562 136.53125 132.273438 135.003906 137.144531 134.714844 C 142.015625 134.421875 148.195312 135.949219 149.359375 137.765625 C 150.597656 139.582031 148.125 142.636719 151.179688 146.34375 C 154.230469 149.976562 156.050781 148.449219 156.414062 149.976562 C 156.703125 151.503906 153.941406 153.027344 152.777344 153.027344 C 151.542969 153.027344 141.433594 155.789062 145.433594 157.609375 C 149.433594 159.425781 156.488281 157.898438 158.011719 160.371094 C 159.539062 162.839844 153.140625 168 162.304688 168.292969 C 171.464844 168.582031 177.574219 169.816406 182.808594 170.109375 C 188.046875 170.398438 191.679688 170.691406 192.261719 171.925781 C 192.84375 173.160156 196.554688 167.347656 187.972656 167.347656 C 179.390625 167.347656 172.703125 162.476562 168.046875 161.53125 C 163.46875 160.585938 160.414062 157.535156 160.121094 153.902344 C 159.832031 150.195312 160.414062 147.503906 158.59375 144.453125 C 156.777344 141.398438 152.195312 134.058594 156.488281 131.007812 C 160.777344 127.953125 169.355469 122.140625 171.464844 118.140625 C 173.574219 114.144531 173.574219 113.273438 178.519531 110.21875 C 183.390625 107.167969 189.207031 103.171875 191.972656 100.410156 C 194.734375 97.644531 199.316406 93.359375 200.261719 95.539062 C 201.207031 97.644531 205.496094 98.300781 210.660156 96.484375 C 215.894531 94.667969 222.296875 90.085938 216.769531 90.085938 C 211.242188 90.085938 207.898438 88.5625 209.425781 86.453125 C 210.953125 84.347656 205.789062 83.402344 204.1875 83.691406 C 202.660156 83.984375 202.660156 80.640625 207.898438 79.695312 C 213.132812 78.75 208.84375 83.402344 213.132812 83.039062 C 217.421875 82.746094 220.1875 79.402344 223.242188 78.75 C 226.292969 78.167969 227.53125 80.855469 223.53125 83.617188 C 219.53125 86.382812 218.296875 85.4375 223.53125 86.671875 C 228.765625 87.90625 230.292969 90.667969 233.347656 87.90625 C 236.402344 85.144531 232.765625 84.199219 232.402344 80.566406 C 232.113281 76.933594 232.984375 70.171875 229.640625 67.703125 C 226.292969 65.230469 226.292969 62.179688 226.292969 59.78125 C 226.292969 57.308594 226.875 52.148438 223.53125 54.546875 C 220.1875 57.019531 217.421875 58.542969 216.1875 57.308594 C 214.949219 56.074219 216.769531 53.601562 214.078125 51.785156 C 211.316406 49.96875 211.023438 47.207031 207.679688 47.496094 C 204.335938 47.789062 200.917969 45.027344 199.097656 49.023438 C 197.28125 53.019531 195.390625 56.363281 194.808594 57.601562 C 194.226562 58.835938 196.917969 63.125 194.515625 65.230469 C 192.042969 67.339844 185.355469 70.464844 184.410156 72.570312 C 183.464844 74.679688 179.828125 80.203125 178.882812 76.570312 C 177.9375 72.933594 181.9375 67.410156 176.410156 65.886719 C 170.882812 64.359375 166.59375 65.59375 165.722656 62.25 C 164.777344 58.90625 162.375 55.855469 167.832031 53.09375 C 173.355469 50.332031 178.882812 45.460938 184.046875 44.808594 C 189.28125 44.226562 185.574219 48.515625 189.863281 48.152344 C 194.152344 47.859375 189.28125 45.679688 194.445312 44.808594 C 199.679688 43.863281 198.734375 43.863281 197.207031 42.046875 C 195.679688 40.230469 196.625 39.9375 200.554688 38.046875 C 204.550781 36.230469 201.496094 34.996094 205.425781 33.46875 C 209.425781 31.945312 210.296875 30.417969 212.476562 30.417969 C 214.585938 30.417969 214.296875 31.363281 213.058594 34.125 C 211.824219 36.886719 210.953125 38.703125 214.585938 36.886719 C 218.296875 35.070312 220.113281 33.832031 217.351562 36.59375 C 214.585938 39.355469 212.769531 39.355469 208.769531 39.9375 C 204.769531 40.519531 206.007812 41.175781 207.824219 43.28125 C 209.640625 45.390625 214.222656 45.753906 215.75 46.914062 C 217.277344 48.152344 219.09375 52.4375 222.804688 50.257812 C 226.441406 48.152344 223.75 47.789062 228.621094 45.679688 C 233.492188 43.574219 240.546875 42.335938 239.964844 39.574219 C 239.382812 36.8125 234.4375 35.285156 233.855469 31.945312 C 233.273438 28.601562 240.621094 26.710938 231.09375 25.183594 C 221.640625 23.65625 227.09375 22.421875 222.511719 22.421875 C 217.933594 22.421875 209.351562 22.421875 206.296875 23.949219 C 203.242188 25.476562 201.425781 23.003906 199.898438 25.476562 C 198.371094 27.945312 200.1875 31.289062 198.664062 31.289062 C 197.136719 31.289062 194.371094 33.761719 193.136719 31.289062 C 191.898438 28.820312 189.136719 26.417969 192.84375 25.476562 C 196.480469 24.53125 197.136719 25.183594 197.71875 22.421875 C 198.296875 19.660156 192.480469 19.953125 195.898438 19.371094 C 199.242188 18.789062 200.769531 19.660156 205.351562 19.660156 C 209.933594 19.660156 220.332031 21.476562 221.859375 18.714844 C 223.386719 15.953125 219.386719 15.953125 214.804688 15.664062 C 210.222656 15.371094 202.226562 13.847656 198.878906 15.371094 C 195.535156 16.898438 191.246094 19.371094 189.71875 21.769531 C 188.191406 24.238281 188.191406 21.1875 185.136719 21.769531 C 182.082031 22.351562 176.847656 25.765625 179.609375 27.582031 C 182.375 29.398438 182.375 31.582031 179.320312 31.582031 C 176.265625 31.582031 175.320312 34.632812 173.210938 34.632812 C 171.101562 34.632812 165.285156 34.34375 167.976562 32.816406 C 170.738281 31.289062 173.792969 31.289062 173.503906 27.582031 C 173.210938 23.875 176.554688 22.714844 176.554688 21.476562 C 176.554688 20.242188 169.210938 24.238281 163.394531 22.421875 C 157.578125 20.605469 155.105469 17.84375 149.289062 18.132812 C 143.46875 18.425781 135.835938 26.054688 139.472656 26.710938 C 143.179688 27.292969 145.871094 26.128906 146.523438 27.945312 C 147.105469 29.761719 145.941406 31.289062 148.050781 32.234375 C 150.160156 33.179688 154.160156 35.578125 148.996094 34.34375 C 143.832031 33.105469 146.234375 31 138.308594 30.636719 C 130.382812 30.34375 125.4375 27.875 117.21875 30.054688 C 108.929688 32.160156 110.164062 34.050781 104.640625 32.160156 C 99.113281 30.34375 87.476562 26.054688 78.316406 27.875 C 69.152344 29.691406 57.808594 32.742188 55.046875 34.632812 C 52.285156 36.449219 57.808594 38.265625 52.9375 38.628906 C 48.066406 38.921875 36.429688 38.628906 38.832031 41.683594 C 41.304688 44.734375 44.355469 45.027344 40.648438 45.679688 C 37.011719 46.261719 32.066406 46.625 30.25 49.3125 C 28.433594 52.074219 21.667969 53.601562 25.960938 54.835938 C 30.25 56.074219 37.304688 58.835938 34.25 59.125 C 31.195312 59.417969 15.5625 65.523438 8.871094 67.046875 C 2.109375 68.574219 -3.34375 75.914062 2.472656 73.734375 C 9.890625 71.046875 29.742188 64.867188 33.378906 63.339844 C 37.011719 61.816406 38.613281 63.050781 38.25 65.160156 C 37.957031 67.265625 42.539062 64.214844 46.175781 61.453125 C 49.8125 58.691406 49.8125 53.167969 52.9375 55.054688 C 55.992188 56.871094 57.808594 55.054688 60.28125 54.472656 C 62.753906 53.894531 65.15625 52.367188 67.335938 53.53125 C 69.445312 54.765625 74.972656 56 76.5 57.234375 C 78.023438 58.472656 78.605469 61.234375 77.078125 61.523438 C 75.554688 61.816406 75.261719 63.339844 75.554688 65.8125 C 75.84375 68.285156 77.078125 70.390625 74.027344 71.046875 C 70.972656 71.625 71.554688 75.332031 73.445312 75.042969 C 75.261719 74.753906 76.5 73.808594 76.789062 71.992188 C 77.078125 70.171875 81.078125 66.757812 80.496094 69.226562 C 79.914062 71.699219 78.390625 74.097656 78.390625 75.988281 C 78.390625 77.804688 76.28125 77.515625 75.917969 79.332031 C 75.625 81.148438 76.207031 81.148438 77.734375 82.675781 C 79.261719 84.199219 78.316406 85.144531 78.023438 88.488281 C 77.734375 91.832031 68.570312 101.0625 67.335938 104.113281 C 66.101562 107.167969 66.753906 111.457031 66.753906 114.800781 C 66.753906 118.140625 65.519531 122.429688 68.863281 123.664062 C 72.207031 124.902344 72.5 125.484375 72.5 128.535156 C 72.5 131.589844 72.5 135.292969 74.316406 137.402344 C 76.132812 139.511719 75.261719 139.21875 75.261719 142.636719 C 75.261719 146.050781 77.371094 144.160156 77.734375 146.921875 C 78.023438 149.683594 76.207031 150.921875 79.261719 153.027344 C 82.316406 155.136719 85.660156 156.664062 84.132812 153.320312 C 82.605469 149.976562 81.660156 147.214844 80.132812 142.273438 C 78.605469 137.402344 77.660156 128.535156 79.550781 131.222656 C 81.371094 133.988281 83.84375 142.273438 86.605469 148.011719 C 89.367188 153.828125 92.714844 153.246094 92.714844 157.460938 C 92.714844 161.75 89.367188 165.746094 96.058594 168.507812 C 102.820312 171.269531 107.695312 177.085938 111.691406 176.429688 C 115.691406 175.851562 118.09375 173.378906 119.617188 176.140625 C 121.144531 178.902344 124.492188 182.535156 128.199219 182.535156 C 131.835938 182.535156 133.070312 185.007812 133.726562 188.640625 C 134.308594 192.277344 136.78125 192.929688 140.488281 194.164062 C 144.125 195.402344 145.070312 199.398438 147.832031 199.035156 C 150.597656 198.746094 154.230469 197.507812 154.230469 200.269531 C 154.230469 203.03125 155.46875 209.71875 150.886719 214.007812 C 146.304688 218.296875 144.125 221.347656 146.597656 224.109375 C 149.070312 226.871094 146.886719 229.632812 145.652344 231.742188 C 144.414062 233.847656 146.597656 235.738281 148.996094 239.082031 C 151.46875 242.425781 154.8125 246.421875 156.921875 253.183594 C 159.03125 259.941406 162.160156 262.339844 167.320312 264.519531 C 172.558594 266.628906 176.484375 270.335938 176.484375 275.566406 C 176.484375 280.800781 176.191406 298.535156 176.191406 303.695312 C 176.191406 308.925781 178.957031 314.085938 178.011719 318.085938 C 177.066406 322.082031 178.011719 325.425781 179.246094 326.953125 C 180.484375 328.476562 180.191406 331.820312 180.484375 335.238281 C 180.773438 338.582031 184.484375 336.183594 184.484375 339.234375 C 184.484375 342.289062 182.957031 346.867188 184.773438 348.390625 C 186.589844 349.917969 182.664062 355.441406 190.882812 360.601562 C 199.171875 365.835938 199.753906 366.125 200.335938 367 C 200.917969 367.945312 203.679688 365.183594 203.679688 366.707031 C 203.679688 368.234375 199.097656 372.8125 207.679688 372.8125 C 216.257812 372.8125 221.421875 374.046875 216.257812 370.050781 C 211.023438 366.054688 207.96875 367.945312 207.097656 363.945312 C 206.152344 359.949219 204.988281 360.601562 204.335938 357.839844 C 203.753906 355.078125 206.515625 353.84375 205.570312 351.082031 C 204.625 348.320312 200.988281 348.320312 201.28125 345.558594 C 201.570312 342.796875 203.753906 340.035156 204.335938 338.796875 C 204.914062 337.5625 204.914062 336.328125 203.390625 335.164062 C 201.863281 333.929688 202.152344 333.636719 204.335938 332.984375 C 206.515625 332.402344 206.804688 333.273438 207.679688 330.222656 C 208.625 327.171875 211.316406 327.460938 212.550781 326.589844 C 213.789062 325.644531 218.078125 324.480469 216.550781 320.484375 C 215.023438 316.484375 211.96875 314.667969 215.3125 314.667969 C 218.660156 314.667969 222.078125 314.378906 224.1875 310.089844 C 226.292969 305.800781 225.421875 304.855469 227.894531 301.515625 C 230.367188 298.171875 230.65625 295.410156 230.65625 292.9375 C 230.65625 290.464844 229.421875 288.066406 232.765625 286.542969 C 236.109375 285.015625 247.164062 283.199219 248.691406 278.621094 C 250.21875 274.039062 251.746094 269.171875 251.164062 264.230469 C 250.582031 259.359375 250.21875 256.308594 253.636719 252.308594 C 256.980469 248.3125 261.269531 244.96875 261.269531 241.335938 C 261.34375 237.699219 262.945312 232.539062 257.417969 231.015625 Z M 257.417969 231.015625 " fill-opacity="1" fill-rule="nonzero" />
    <g clip-path="url(#50fc780ea8)">
        <path fill="#000000" d="M 314.0625 29.980469 C 317.410156 26.347656 316.535156 24.457031 321.117188 22.640625 C 325.699219 20.824219 324.460938 18.351562 323.878906 14.71875 C 323.296875 11.011719 323.878906 12.609375 325.699219 11.375 C 327.515625 10.140625 330.277344 9.265625 334.570312 8.902344 C 338.859375 8.613281 334.859375 7.085938 334.859375 5.269531 C 334.859375 3.453125 331.804688 3.742188 327.515625 4.324219 C 323.226562 4.90625 323.878906 4.324219 320.753906 3.089844 C 317.699219 1.855469 299.664062 1.855469 295.011719 1.855469 C 290.429688 1.855469 282.140625 2.800781 277.851562 3.089844 C 273.558594 3.378906 273.851562 3.089844 265.632812 2.144531 C 257.34375 1.199219 235.675781 1.855469 227.675781 2.726562 C 219.75 3.671875 213.933594 4.542969 208.695312 7.960938 C 203.460938 11.300781 200.117188 10.066406 194.300781 10.722656 C 188.480469 11.300781 187.898438 11.300781 185.136719 11.300781 C 182.375 11.300781 182.664062 9.777344 177.792969 11.59375 C 172.921875 13.410156 174.449219 14.644531 172.558594 12.175781 C 170.738281 9.703125 168.265625 12.175781 159.6875 14.28125 C 151.105469 16.390625 162.738281 18.859375 165.503906 19.804688 C 165.503906 19.804688 171.320312 19.515625 174.664062 18.570312 C 178.011719 17.625 179.539062 19.804688 181.71875 19.152344 C 183.828125 18.570312 184.480469 16.390625 196.699219 13.628906 C 208.914062 10.867188 217.496094 13.046875 222.441406 15.15625 C 227.3125 17.261719 227.3125 16.097656 231.601562 13.335938 C 235.894531 10.574219 243.238281 8.46875 250.871094 7.230469 C 258.507812 5.996094 253.636719 8.757812 248.765625 10.574219 C 243.890625 12.394531 239.601562 11.8125 240.472656 14.863281 C 241.417969 17.917969 250.871094 16.972656 253.636719 16.972656 C 256.398438 16.972656 256.691406 21.257812 256.980469 23.730469 C 257.273438 26.203125 256.691406 27.4375 257.273438 29.835938 C 257.851562 32.308594 259.378906 31.945312 256.691406 34.414062 C 253.925781 36.886719 252.398438 36.523438 252.398438 40.8125 C 252.398438 45.097656 254.21875 49.675781 258.507812 52.730469 C 262.796875 55.78125 265.269531 56.074219 267.671875 51.203125 C 270.140625 46.335938 275.960938 43.28125 279.015625 41.753906 C 282.066406 40.230469 286.359375 41.753906 290.359375 38.121094 C 294.355469 34.488281 299.519531 36.015625 305.335938 34.125 C 311.300781 32.453125 310.644531 33.6875 314.0625 29.980469 Z M 314.0625 29.980469 " fill-opacity="1" fill-rule="nonzero" />
    </g>
    <path fill="#000000" d="M 320.171875 37.03125 C 311.007812 38.265625 302.429688 35.214844 303.957031 40.082031 C 305.484375 44.953125 305.773438 52.292969 310.71875 50.769531 C 319.152344 48.152344 328.460938 46.769531 326.351562 42.84375 C 324.097656 38.847656 329.332031 35.796875 320.171875 37.03125 Z M 320.171875 37.03125 " fill-opacity="1" fill-rule="nonzero" />
</svg>