<svg width="32" height="32" viewBox="0 0 32 32" fill="none" xmlns="http://www.w3.org/2000/svg">
<path d="M31 0H0C0 0 0 0 0 0V32C0 32 0 32 5 32H31V0Z" fill="#fff"/>
<path d="M10.435 13.4441C10.2271 13.2887 10.0188 13.2111 9.81089 13.2111H8.87661V18.8077H9.81143C10.0193 18.8077 10.2277 18.73 10.4355 18.5746C10.6434 18.4193 10.7473 18.1862 10.7473 17.875V14.1438C10.7468 13.833 10.6423 13.5995 10.435 13.4441ZM25.6482 4H6.35179C5.05536 4 4.00321 5.04946 4 6.34643V25.6536C4.00321 26.9505 5.05536 28 6.35179 28H25.6482C26.9452 28 27.9968 26.9505 28 25.6536V6.34643C27.9968 5.04946 26.9446 4 25.6482 4ZM12.2607 17.8852C12.2607 18.8929 11.6388 20.4196 9.67 20.4164H7.18429V11.5525H9.7225C11.6211 11.5525 12.2596 13.0771 12.2602 14.0854L12.2607 17.8852ZM17.6543 13.1355H14.8V15.1938H16.5448V16.7779H14.8V18.8355H17.6548V20.4196H14.3238C13.7259 20.4352 13.2288 19.9627 13.2138 19.3648V12.6625C13.1993 12.0652 13.6723 11.5691 14.2696 11.5541H17.6548L17.6543 13.1355ZM23.2064 19.3118C22.4993 20.9591 21.2323 20.6313 20.665 19.3118L18.6009 11.5546H20.3457L21.9373 17.6468L23.5214 11.5546H25.2668L23.2064 19.3118Z" fill="#000"/>
<defs>
<linearGradient id="paint0_linear" x1="0" y1="0" x2="0" y2="32" gradientUnits="userSpaceOnUse">
<stop stop-color="#BBBBBB" stop-opacity="0.1"/>
<stop offset="1" stop-opacity="0.1"/>
</linearGradient>
</defs>
</svg>
