<svg width="32" height="32" viewBox="0 0 32 32" fill="none" xmlns="http://www.w3.org/2000/svg">
<path d="M31 0H0C0 0 0 0 0 0V32C0 32 0 32 5 32H31V0Z" fill="#004880"/>
<path d="M9.92457 26H5.3634V11.3117H9.92457V26ZM7.64153 9.30811C6.18302 9.30811 5 8.10005 5 6.64153C5 5.94095 5.2783 5.26907 5.77369 4.77369C6.26907 4.2783 6.94095 4 7.64153 4C8.34211 4 9.01399 4.2783 9.50938 4.77369C10.0048 5.26907 10.2831 5.94095 10.2831 6.64153C10.2831 8.10005 9.09956 9.30811 7.64153 9.30811ZM26.9956 26H22.4442V18.8498C22.4442 17.1458 22.4099 14.9605 20.0728 14.9605C17.7014 14.9605 17.338 16.8118 17.338 18.7271V26H12.7817V11.3117H17.1563V13.3153H17.2201C17.829 12.1613 19.3165 10.9434 21.5357 10.9434C26.1519 10.9434 27.0005 13.9832 27.0005 17.9315V26H26.9956Z" fill="white"/>
<defs>
<linearGradient id="paint0_linear" x1="0" y1="0" x2="0" y2="32" gradientUnits="userSpaceOnUse">
<stop stop-color="#BBBBBB" stop-opacity="0.1"/>
<stop offset="1" stop-opacity="0.1"/>
</linearGradient>
</defs>
</svg>
