<svg width="32" height="32" viewBox="0 0 32 32" fill="none" xmlns="http://www.w3.org/2000/svg">
<path d="M31 0H0C0 0 0 0 0 0V32C0 32 0 32 5 32H31V0Z" fill="#000000"/>
<path d="M5.98593 10.0803C6.0172 9.7728 5.89734 9.46535 5.66806 9.2569L3.31787 6.42209V6H10.6238L16.2725 18.3867L21.2387 6H28.2058V6.42209L26.1944 8.35018C26.0224 8.48046 25.9338 8.69932 25.9703 8.91298V23.087C25.9338 23.3007 26.0224 23.5195 26.1944 23.6498L28.1589 25.5779V26H18.2736V25.5779L20.3111 23.6029C20.5091 23.4049 20.5091 23.3424 20.5091 23.0401V11.5862L14.8447 25.9635H14.0787L7.49192 11.5862V21.2215C7.4346 21.6279 7.57009 22.0344 7.8567 22.3262L10.5039 25.5362V25.9583H3V25.5414L5.64721 22.3262C5.92861 22.0344 6.05888 21.6227 5.98593 21.2215V10.0803Z" fill="white"/>
<defs>
<linearGradient id="paint0_linear" x1="0" y1="0" x2="0" y2="32" gradientUnits="userSpaceOnUse">
<stop stop-color="#BBBBBB" stop-opacity="0.1"/>
<stop offset="1" stop-opacity="0.1"/>
</linearGradient>
</defs>
</svg>
