<svg width="157" height="32" viewBox="0 0 157 32" fill="none" xmlns="http://www.w3.org/2000/svg">
<path d="M31 0H0C0 0 0 0 0 0V32C0 32 0 32 5 32H31V0Z" fill="#F48024"/>
<path d="M21.1286 18.9464L10.6447 16.7339L10.2054 18.8393L20.6893 21.0357L21.1286 18.9464ZM23.8607 14.2857L15.6375 7.4125L14.2714 9.0625L22.4947 15.9357L23.8607 14.2857ZM22.1893 16.4125L12.4768 11.875L11.5822 13.8304L21.2893 18.3571L22.1893 16.4125ZM19.5911 4L17.8768 5.28571L24.2679 13.8732L25.9822 12.5875L19.5911 4ZM20.6893 21.5714H9.97501V23.6982H20.6893V21.5714ZM22.8161 25.8571H7.84287V19.4286H5.70001V28H24.9589V19.4286H22.8161V25.8571Z" fill="white"/>
<defs>
<linearGradient id="paint0_linear" x1="0" y1="0" x2="0" y2="32" gradientUnits="userSpaceOnUse">
<stop stop-color="#BBBBBB" stop-opacity="0.1"/>
<stop offset="1" stop-opacity="0.1"/>
</linearGradient>
</defs>
</svg>
