<svg width="32" height="32" viewBox="0 0 32 32" fill="none" xmlns="http://www.w3.org/2000/svg">
<path d="M31 0H0C0 0 0 0 0 0V32C0 32 0 32 5 32H31V0Z" fill="#1DA1F2"/>
<path d="M25.5331 10.9399C25.5483 11.1531 25.5483 11.3663 25.5483 11.5795C25.5483 18.082 20.5991 25.5745 11.5533 25.5745C8.7665 25.5745 6.17768 24.7673 4 23.3664C4.39595 23.412 4.77663 23.4273 5.18782 23.4273C7.48728 23.4273 9.60407 22.6506 11.2944 21.3257C9.13199 21.28 7.31979 19.8638 6.69542 17.9145C7.00001 17.9602 7.30456 17.9907 7.62439 17.9907C8.066 17.9907 8.50766 17.9297 8.9188 17.8232C6.66499 17.3663 4.97458 15.3866 4.97458 12.9957V12.9349C5.62938 13.3003 6.39087 13.5288 7.19792 13.5592C5.87304 12.6759 5.00505 11.1683 5.00505 9.46272C5.00505 8.54903 5.24866 7.71146 5.67508 6.98049C8.09642 9.96527 11.736 11.9145 15.8172 12.1277C15.7411 11.7622 15.6954 11.3816 15.6954 11.0008C15.6954 8.29013 17.8883 6.08203 20.6142 6.08203C22.0304 6.08203 23.3096 6.67594 24.2081 7.63533C25.3198 7.42215 26.3858 7.01096 27.33 6.44752C26.9644 7.58968 26.1878 8.54907 25.1675 9.15817C26.1574 9.05162 27.1168 8.77745 28 8.39677C27.3301 9.37136 26.4924 10.2393 25.5331 10.9399Z" fill="white"/>
<defs>
<linearGradient id="paint0_linear" x1="0" y1="0" x2="0" y2="32" gradientUnits="userSpaceOnUse">
<stop stop-color="#BBBBBB" stop-opacity="0.1"/>
<stop offset="1" stop-opacity="0.1"/>
</linearGradient>
</defs>
</svg>
