<svg width="32" height="32" viewBox="0 0 32 32" fill="none" xmlns="http://www.w3.org/2000/svg">
<path d="M31 0H0C0 0 0 0 0 0V32C0 32 0 32 5 32H31V0Z" fill="#3CC04E"/>
<path d="M22.8547 8.55156C20.8906 6.58281 18.275 5.5 15.4953 5.5C9.75781 5.5 5.08906 10.1687 5.08906 15.9062C5.08906 17.7391 5.56719 19.5297 6.47656 21.1094L5 26.5L10.5172 25.0516C12.0359 25.8813 13.7469 26.3172 15.4906 26.3172H15.4953C21.2281 26.3172 26 21.6484 26 15.9109C26 13.1313 24.8188 10.5203 22.8547 8.55156ZM15.4953 24.5641C13.9391 24.5641 12.4156 24.1469 11.0891 23.3594L10.775 23.1719L7.50313 24.0297L8.375 20.8375L8.16875 20.5094C7.30156 19.1313 6.84688 17.5422 6.84688 15.9062C6.84688 11.1391 10.7281 7.25781 15.5 7.25781C17.8109 7.25781 19.9812 8.15781 21.6125 9.79375C23.2437 11.4297 24.2469 13.6 24.2422 15.9109C24.2422 20.6828 20.2625 24.5641 15.4953 24.5641ZM20.2391 18.0859C19.9813 17.9547 18.7016 17.3266 18.4625 17.2422C18.2234 17.1531 18.05 17.1109 17.8766 17.3734C17.7031 17.6359 17.2063 18.2172 17.0516 18.3953C16.9016 18.5688 16.7469 18.5922 16.4891 18.4609C14.9609 17.6969 13.9578 17.0969 12.95 15.3672C12.6828 14.9078 13.2172 14.9406 13.7141 13.9469C13.7984 13.7734 13.7562 13.6234 13.6906 13.4922C13.625 13.3609 13.1047 12.0813 12.8891 11.5609C12.6781 11.0547 12.4625 11.125 12.3031 11.1156C12.1531 11.1063 11.9797 11.1063 11.8062 11.1063C11.6328 11.1063 11.3516 11.1719 11.1125 11.4297C10.8734 11.6922 10.2031 12.3203 10.2031 13.6C10.2031 14.8797 11.1359 16.1172 11.2625 16.2906C11.3938 16.4641 13.0953 19.0891 15.7062 20.2188C17.3562 20.9312 18.0031 20.9922 18.8281 20.8703C19.3297 20.7953 20.3656 20.2422 20.5812 19.6328C20.7969 19.0234 20.7969 18.5031 20.7313 18.3953C20.6703 18.2781 20.4969 18.2125 20.2391 18.0859Z" fill="white"/>
<defs>
<linearGradient id="paint0_linear" x1="0" y1="0" x2="0" y2="32" gradientUnits="userSpaceOnUse">
<stop stop-color="#BBBBBB" stop-opacity="0.1"/>
<stop offset="1" stop-opacity="0.1"/>
</linearGradient>
</defs>
</svg>