<svg width="32" height="32" viewBox="0 0 32 32" fill="none" xmlns="http://www.w3.org/2000/svg">
<path d="M31 0H0C0 0 0 0 0 0V32C0 32 0 32 5 32H31V0Z" fill="#FF0000"/>
<path d="M27.4316 10.6404C27.1556 9.60106 26.3423 8.78253 25.3097 8.50476C23.4381 8 15.9331 8 15.9331 8C15.9331 8 8.42813 8 6.55646 8.50476C5.52388 8.78258 4.71063 9.60106 4.43461 10.6404C3.93311 12.5242 3.93311 16.4545 3.93311 16.4545C3.93311 16.4545 3.93311 20.3849 4.43461 22.2687C4.71063 23.308 5.52388 24.0924 6.55646 24.3702C8.42813 24.875 15.9331 24.875 15.9331 24.875C15.9331 24.875 23.4381 24.875 25.3097 24.3702C26.3423 24.0924 27.1556 23.308 27.4316 22.2687C27.9331 20.3849 27.9331 16.4545 27.9331 16.4545C27.9331 16.4545 27.9331 12.5242 27.4316 10.6404ZM13.4785 20.023V12.8861L19.7512 16.4546L13.4785 20.023Z" fill="white"/>
<defs>
<linearGradient id="paint0_linear" x1="0" y1="0" x2="0" y2="32" gradientUnits="userSpaceOnUse">
<stop stop-color="#BBBBBB" stop-opacity="0.1"/>
<stop offset="1" stop-opacity="0.1"/>
</linearGradient>
</defs>
</svg>
