<svg width="32" height="32" viewBox="0 0 32 32" fill="none" xmlns="http://www.w3.org/2000/svg">
<path d="M31 0H0C0 0 0 0 0 0V32C0 32 0 32 5 32H31V0Z" fill="#FF5722"/>
<path d="M25.9344 14.4391C25.85 14.0641 25.6157 13.7172 25.3485 13.5719C25.2641 13.5251 24.7391 13.4688 24.1766 13.4454C23.2344 13.4032 23.1313 13.3844 22.8313 13.211C22.3578 12.9344 22.2313 12.6344 22.2266 11.8282C22.2219 10.2813 21.5797 8.84225 20.3094 7.5485C19.4047 6.62506 18.3922 6.00162 17.2391 5.65006C16.9625 5.56569 16.3438 5.53756 14.2719 5.51412C11.0188 5.47662 10.2969 5.54225 9.19065 5.98287C7.15159 6.78912 5.68909 8.50475 5.15471 10.6985C5.05628 11.111 5.03284 11.7719 5.0094 15.5688C4.98128 20.3266 5.01409 21.0251 5.3094 21.9672C6.04065 24.2922 8.11721 26.0126 10.2032 26.3876C10.8969 26.5141 19.4516 26.5422 20.3282 26.4251C21.8516 26.2188 23.0469 25.6047 24.1672 24.461C24.9782 23.6313 25.4844 22.736 25.8172 21.5501C26.0469 20.7251 26.0282 14.8563 25.9344 14.4391ZM10.836 11.4579C11.2016 11.0876 11.3047 11.0735 13.5922 11.0735C15.65 11.0735 15.7203 11.0782 16.0203 11.2329C16.4563 11.4532 16.6485 11.7626 16.6485 12.2594C16.6485 12.7047 16.4703 13.0188 16.0719 13.2719C15.8563 13.4079 15.7297 13.4173 13.7141 13.4266C12.4719 13.436 11.4782 13.4079 11.3328 13.3704C10.5547 13.1501 10.2641 12.0344 10.836 11.4579ZM19.8266 20.8235L19.1282 20.936L15.4953 20.9782C12.3032 21.0157 11.4032 20.9594 11.2344 20.8844C10.9016 20.7391 10.5875 20.336 10.536 19.9751C10.4844 19.6329 10.6578 19.1641 10.9203 18.9251C11.2532 18.6251 11.3985 18.6157 15.4813 18.611C19.6813 18.6063 19.6578 18.6063 20.0563 18.9766C20.6235 19.5063 20.5016 20.4391 19.8266 20.8235Z" fill="white"/>
<defs>
<linearGradient id="paint0_linear" x1="0" y1="0" x2="0" y2="32" gradientUnits="userSpaceOnUse">
<stop stop-color="#BBBBBB" stop-opacity="0.1"/>
<stop offset="1" stop-opacity="0.1"/>
</linearGradient>
</defs>
</svg>
