<svg width="32" height="32" viewBox="0 0 32 32" fill="none" xmlns="http://www.w3.org/2000/svg">
<path d="M31 0H0C0 0 0 0 0 0V32C0 32 0 32 5 32H31V0Z" fill="url(#paint0_linear)"/>
<path d="M15.9277 9.67035C12.5224 9.67035 9.77574 12.417 9.77574 15.8223C9.77574 19.2275 12.5224 21.9742 15.9277 21.9742C19.3329 21.9742 22.0796 19.2275 22.0796 15.8223C22.0796 12.417 19.3329 9.67035 15.9277 9.67035ZM15.9277 19.8218C13.7271 19.8218 11.9281 18.0282 11.9281 15.8223C11.9281 13.6164 13.7218 11.8227 15.9277 11.8227C18.1336 11.8227 19.9272 13.6164 19.9272 15.8223C19.9272 18.0282 18.1282 19.8218 15.9277 19.8218ZM23.7661 9.4187C23.7661 10.2165 23.1237 10.8536 22.3312 10.8536C21.5335 10.8536 20.8963 10.2111 20.8963 9.4187C20.8963 8.62629 21.5388 7.98379 22.3312 7.98379C23.1237 7.98379 23.7661 8.62629 23.7661 9.4187ZM27.8407 10.875C27.7496 8.95289 27.3106 7.25027 25.9025 5.84748C24.4997 4.44469 22.797 4.00565 20.8749 3.90928C18.8939 3.79684 12.9561 3.79684 10.9751 3.90928C9.05828 4.0003 7.35566 4.43934 5.94752 5.84213C4.53938 7.24492 4.10569 8.94754 4.00932 10.8697C3.89688 12.8507 3.89688 18.7885 4.00932 20.7695C4.10034 22.6917 4.53938 24.3943 5.94752 25.7971C7.35566 27.1999 9.05293 27.6389 10.9751 27.7353C12.9561 27.8477 18.8939 27.8477 20.8749 27.7353C22.797 27.6442 24.4997 27.2052 25.9025 25.7971C27.3052 24.3943 27.7443 22.6917 27.8407 20.7695C27.9531 18.7885 27.9531 12.8561 27.8407 10.875ZM25.2814 22.8951C24.8638 23.9445 24.0553 24.753 23.0005 25.176C21.421 25.8024 17.6731 25.6579 15.9277 25.6579C14.1822 25.6579 10.4289 25.7971 8.85483 25.176C7.80541 24.7584 6.99693 23.9499 6.57396 22.8951C5.94752 21.3156 6.09208 17.5677 6.09208 15.8223C6.09208 14.0768 5.95287 10.3236 6.57396 8.74944C6.99158 7.70002 7.80006 6.89154 8.85483 6.46857C10.4343 5.84213 14.1822 5.98669 15.9277 5.98669C17.6731 5.98669 21.4264 5.84748 23.0005 6.46857C24.0499 6.88619 24.8584 7.69467 25.2814 8.74944C25.9078 10.3289 25.7632 14.0768 25.7632 15.8223C25.7632 17.5677 25.9078 21.321 25.2814 22.8951Z" fill="white"/>
<defs>
<linearGradient id="paint0_linear" x1="31" y1="9.53674e-07" x2="-6.81608e-07" y2="32" gradientUnits="userSpaceOnUse">
<stop stop-color="#A835B6"/>
<stop offset="0.578125" stop-color="#E94657"/>
<stop offset="1" stop-color="#FEBD59"/>
</linearGradient>
<linearGradient id="paint1_linear" x1="0" y1="0" x2="0" y2="32" gradientUnits="userSpaceOnUse">
<stop stop-color="#BBBBBB" stop-opacity="0.1"/>
<stop offset="1" stop-opacity="0.1"/>
</linearGradient>
</defs>
</svg>
