<svg width="32" height="32" viewBox="0 0 32 32" fill="none" xmlns="http://www.w3.org/2000/svg">
<path d="M31 0H0C0 0 0 0 0 0V32C0 32 0 32 5 32H31V0Z" fill="#FF4500"/>
<path d="M24.3237 13.6803C23.565 13.6803 22.8973 13.9939 22.4066 14.4846C20.6007 13.2352 18.1676 12.4309 15.4715 12.3449L16.8726 6.03192L21.3342 7.0335C21.3342 8.12612 22.2245 9.01641 23.3171 9.01641C24.43 9.01641 25.3253 8.10083 25.3253 7.0082C25.3253 5.91558 24.435 5 23.3171 5C22.5381 5 21.8653 5.47044 21.5315 6.11286L16.6046 5.02023C16.3567 4.95447 16.1139 5.13152 16.0481 5.37938L14.5104 12.3398C11.8344 12.4511 9.42661 13.2554 7.61569 14.5048C7.12502 13.9939 6.43201 13.6803 5.67325 13.6803C2.86075 13.6803 1.94011 17.4539 4.51486 18.7438C4.42381 19.1434 4.38334 19.5683 4.38334 19.9932C4.38334 24.2322 9.15852 27.6669 15.0213 27.6669C20.9093 27.6669 25.6845 24.2322 25.6845 19.9932C25.6845 19.5683 25.6389 19.1232 25.5277 18.7236C28.0518 17.4286 27.1211 13.6803 24.3237 13.6803ZM8.59703 19.0119C8.59703 17.899 9.48732 17.0037 10.6052 17.0037C11.6979 17.0037 12.5881 17.894 12.5881 19.0119C12.5881 20.1045 11.6979 20.9948 10.6052 20.9948C9.49237 20.9999 8.59703 20.1045 8.59703 19.0119ZM19.4373 23.7415C17.596 25.5828 12.401 25.5828 10.5597 23.7415C10.3574 23.5645 10.3574 23.2509 10.5597 23.0485C10.7368 22.8715 11.0504 22.8715 11.2274 23.0485C12.6337 24.4902 17.2976 24.5155 18.7645 23.0485C18.9416 22.8715 19.2552 22.8715 19.4322 23.0485C19.6396 23.2509 19.6396 23.5645 19.4373 23.7415ZM19.3968 20.9999C18.3042 20.9999 17.4139 20.1096 17.4139 19.017C17.4139 17.9041 18.3042 17.0088 19.3968 17.0088C20.5097 17.0088 21.405 17.899 21.405 19.017C21.4 20.1045 20.5097 20.9999 19.3968 20.9999Z" fill="white"/>
<defs>
<linearGradient id="paint0_linear" x1="0" y1="0" x2="0" y2="32" gradientUnits="userSpaceOnUse">
<stop stop-color="#BBBBBB" stop-opacity="0.1"/>
<stop offset="1" stop-opacity="0.1"/>
</linearGradient>
</defs>
</svg>
