<svg width="32" height="32" viewBox="0 0 32 32" fill="none" xmlns="http://www.w3.org/2000/svg">
<path d="M31 0H0C0 0 0 0 0 0V32C0 32 0 32 5 32H31V0Z" fill="#01AFF1"/>
<path d="M26.7569 18.3496C26.9123 17.5995 27.0087 16.8011 27.0087 16.0027C27.0087 9.92096 22.0844 5.00201 16.008 5.00201C15.2096 5.00201 14.4166 5.0931 13.6611 5.25385C12.643 4.46618 11.3784 4 10.0013 4C6.68989 4 4 6.68989 4 10.0013C4 11.3784 4.46618 12.643 5.24849 13.6557C5.0931 14.4059 4.99665 15.2043 4.99665 16.0027C4.99665 22.0844 9.92096 27.0033 15.9973 27.0033C16.7957 27.0033 17.5887 26.9123 18.3443 26.7515C19.3624 27.5338 20.6269 28 21.9987 28C25.3101 28 28 25.3101 28 21.9987C28.0054 20.6269 27.5392 19.3624 26.7569 18.3496ZM16.3295 23.2525C12.8145 23.2525 9.87274 21.6879 9.87274 19.7696C9.87274 18.9123 10.355 18.1299 11.4535 18.1299C13.1253 18.1299 13.2806 20.5358 16.1741 20.5358C17.5512 20.5358 18.4407 19.925 18.4407 19.1266C18.4407 18.1246 17.5834 17.9692 16.1902 17.6263C12.8413 16.8011 9.8781 16.4474 9.8781 12.9538C9.8781 9.78165 13.0181 8.60817 15.724 8.60817C18.6765 8.60817 21.6611 9.78165 21.6611 11.5767C21.6611 12.4823 21.0502 13.2806 20.0375 13.2806C18.5211 13.2806 18.4729 11.4856 16.0188 11.4856C14.6417 11.4856 13.7683 11.8607 13.7683 12.6912C13.7683 13.7522 14.8828 13.8593 17.4709 14.4595C19.6892 14.9578 22.3309 15.8955 22.3309 18.6175C22.3309 21.7843 19.2713 23.2525 16.3295 23.2525Z" fill="white"/>
<defs>
<linearGradient id="paint0_linear" x1="0" y1="0" x2="0" y2="32" gradientUnits="userSpaceOnUse">
<stop stop-color="#BBBBBB" stop-opacity="0.1"/>
<stop offset="1" stop-opacity="0.1"/>
</linearGradient>
</defs>
</svg>
